# xmcd
#
# Track frame offsets:
#	150
#	11925
#	24137
#	37400
#	52682
#	65837
#	79197
#	92967
#	107347
#	121850
#	136087
#	148650
#	162252
#	175290
#	188885
#	202800
#	215777
#	230550
#	245080
#	258637
#	272107
#	286065
#	299200
#	311235
#
# Disc length: 4312 seconds
#
# Revision: 0
# Processed by: cddbd v1.4PL0 Copyright (c) Steve Scherf et al.
# Submitted via: audiograbber 1.80
#
DISCID=7310d618
DTITLE=Various Artist - Mississippi Blues
DYEAR=1900
DGENRE=
TTITLE0=Little Girl in Rome - Otto Virgial 
TTITLE1=Bad Notion Blues - Otto Virgial 
TTITLE2=Got the Blues About Rome - Otto Virgial 
TTITLE3=Seven Year Itch - Otto Virgial 
TTITLE4=Catfish Blues - Robert Petway
TTITLE5=Ride 'Em on Down - Robert Petway 
TTITLE6=Rockin' Chair Blues - Robert Petway 
TTITLE7=My Little Girl - Robert Petway 
TTITLE8=Let Me Be Your Boss - Robert Petway 
TTITLE9=Left My Baby Crying - Robert Petway
TTITLE10=Sleepy Woman Blues - Robert Petway
TTITLE11=Don't Go Down Baby - Robert Petway
TTITLE12=Bertha Lee Blues - Robert Petway
TTITLE13=Boogie Woogie Woman - Robert Petway
TTITLE14=Hollow Log Blues - Robert Petway 
TTITLE15=In the Evening - Robert Petway
TTITLE16=My Baby Left Me - Robert Petway
TTITLE17=Cotton Pickin' Blues - Robert Petway
TTITLE18=Black Spider Blues - Robert Lockwood
TTITLE19=I'm Gonna Train My Baby - Robert Lockwood
TTITLE20=Little Boy Blue - Robert Lockwood 
TTITLE21=Take a Little Walk With Me - Robert Lockwood 
TTITLE22=I'm Gonna Dig Myself a Hole - Robert Lockwood
TTITLE23=Dust My Broom - Robert Lockwood 
EXTD=
EXTT0=
EXTT1=
EXTT2=
EXTT3=
EXTT4=
EXTT5=
EXTT6=
EXTT7=
EXTT8=
EXTT9=
EXTT10=
EXTT11=
EXTT12=
EXTT13=
EXTT14=
EXTT15=
EXTT16=
EXTT17=
EXTT18=
EXTT19=
EXTT20=
EXTT21=
EXTT22=
EXTT23=
PLAYORDER=
